<svg width="80" height="80" viewBox="0 0 80 80" fill="none" xmlns="http://www.w3.org/2000/svg">
<rect width="80" height="80" rx="16" fill="#008994"/>
<rect x="16" y="16" width="48" height="48" rx="16" fill="white"/>
<path d="M46.2879 30.144C45.3919 29.6533 44.4745 29.248 43.5359 28.928C42.6185 28.608 41.7545 28.448 40.9439 28.448C39.9412 28.448 39.1519 28.6507 38.5759 29.056C37.9999 29.4613 37.7119 30.0693 37.7119 30.88C37.7119 31.4347 37.9252 31.936 38.3519 32.384C38.7999 32.8107 39.3652 33.1947 40.0479 33.536C40.7519 33.8773 41.4772 34.1867 42.2239 34.464C42.9065 34.72 43.5785 35.0293 44.2399 35.392C44.9225 35.7333 45.5305 36.1707 46.0639 36.704C46.5972 37.216 47.0239 37.8667 47.3439 38.656C47.6639 39.424 47.8239 40.3733 47.8239 41.504C47.8239 42.6987 47.5145 43.808 46.8959 44.832C46.2772 45.856 45.3705 46.688 44.1759 47.328C42.9812 47.9467 41.5092 48.256 39.7599 48.256C38.8639 48.256 37.9465 48.1707 37.0079 48C36.0905 47.808 35.1839 47.5307 34.2879 47.168C33.3919 46.784 32.5279 46.304 31.6959 45.728L33.7439 42.112C34.2985 42.5173 34.8959 42.88 35.5359 43.2C36.1972 43.4987 36.8585 43.7333 37.5199 43.904C38.1812 44.0747 38.7892 44.16 39.3439 44.16C39.8985 44.16 40.4532 44.0853 41.0079 43.936C41.5839 43.7653 42.0532 43.488 42.4159 43.104C42.7999 42.72 42.9919 42.1867 42.9919 41.504C42.9919 41.0347 42.8319 40.608 42.5119 40.224C42.2132 39.84 41.7972 39.488 41.2639 39.168C40.7519 38.848 40.1865 38.5707 39.5679 38.336C38.8425 38.0587 38.0959 37.7387 37.3279 37.376C36.5599 37.0133 35.8345 36.576 35.1519 36.064C34.4905 35.5307 33.9465 34.88 33.5199 34.112C33.1145 33.3227 32.9119 32.3627 32.9119 31.232C32.9119 29.8667 33.2105 28.6827 33.8079 27.68C34.4265 26.6773 35.2905 25.888 36.3999 25.312C37.5092 24.7147 38.7892 24.384 40.2399 24.32C42.1385 24.32 43.6745 24.544 44.8479 24.992C46.0425 25.44 47.1092 25.9733 48.0479 26.592L46.2879 30.144Z" fill="#008994"/>
</svg>
