<svg width="183" height="50" viewBox="0 0 183 50" fill="none" xmlns="http://www.w3.org/2000/svg">
<rect width="50" height="50" rx="10" fill="#008994"/>
<rect x="10" y="10" width="30" height="30" rx="10" fill="white"/>
<path d="M28.9299 19.34C28.3699 19.0333 27.7966 18.78 27.2099 18.58C26.6366 18.38 26.0966 18.28 25.5899 18.28C24.9633 18.28 24.4699 18.4067 24.1099 18.66C23.7499 18.9133 23.5699 19.2933 23.5699 19.8C23.5699 20.1467 23.7033 20.46 23.9699 20.74C24.2499 21.0067 24.6033 21.2467 25.0299 21.46C25.4699 21.6733 25.9233 21.8667 26.3899 22.04C26.8166 22.2 27.2366 22.3933 27.6499 22.62C28.0766 22.8333 28.4566 23.1067 28.7899 23.44C29.1233 23.76 29.3899 24.1667 29.5899 24.66C29.7899 25.14 29.8899 25.7333 29.8899 26.44C29.8899 27.1867 29.6966 27.88 29.3099 28.52C28.9233 29.16 28.3566 29.68 27.6099 30.08C26.8633 30.4667 25.9433 30.66 24.8499 30.66C24.2899 30.66 23.7166 30.6067 23.1299 30.5C22.5566 30.38 21.9899 30.2067 21.4299 29.98C20.8699 29.74 20.3299 29.44 19.8099 29.08L21.0899 26.82C21.4366 27.0733 21.8099 27.3 22.2099 27.5C22.6233 27.6867 23.0366 27.8333 23.4499 27.94C23.8633 28.0467 24.2433 28.1 24.5899 28.1C24.9366 28.1 25.2833 28.0533 25.6299 27.96C25.9899 27.8533 26.2833 27.68 26.5099 27.44C26.7499 27.2 26.8699 26.8667 26.8699 26.44C26.8699 26.1467 26.7699 25.88 26.5699 25.64C26.3833 25.4 26.1233 25.18 25.7899 24.98C25.4699 24.78 25.1166 24.6067 24.7299 24.46C24.2766 24.2867 23.8099 24.0867 23.3299 23.86C22.8499 23.6333 22.3966 23.36 21.9699 23.04C21.5566 22.7067 21.2166 22.3 20.9499 21.82C20.6966 21.3267 20.5699 20.7267 20.5699 20.02C20.5699 19.1667 20.7566 18.4267 21.1299 17.8C21.5166 17.1733 22.0566 16.68 22.7499 16.32C23.4433 15.9467 24.2433 15.74 25.1499 15.7C26.3366 15.7 27.2966 15.84 28.0299 16.12C28.7766 16.4 29.4433 16.7333 30.0299 17.12L28.9299 19.34Z" fill="#008994"/>
<path d="M73.9222 33.788C72.5942 33.788 71.3062 33.612 70.0582 33.26C68.8262 32.892 67.8342 32.42 67.0822 31.844L68.4022 28.916C69.1222 29.444 69.9782 29.868 70.9702 30.188C71.9622 30.508 72.9542 30.668 73.9462 30.668C75.0502 30.668 75.8662 30.508 76.3942 30.188C76.9222 29.852 77.1862 29.412 77.1862 28.868C77.1862 28.468 77.0262 28.14 76.7062 27.884C76.4022 27.612 76.0022 27.396 75.5062 27.236C75.0262 27.076 74.3702 26.9 73.5382 26.708C72.2582 26.404 71.2102 26.1 70.3942 25.796C69.5782 25.492 68.8742 25.004 68.2822 24.332C67.7062 23.66 67.4182 22.764 67.4182 21.644C67.4182 20.668 67.6822 19.788 68.2102 19.004C68.7382 18.204 69.5302 17.572 70.5862 17.108C71.6582 16.644 72.9622 16.412 74.4982 16.412C75.5702 16.412 76.6182 16.54 77.6422 16.796C78.6662 17.052 79.5622 17.42 80.3302 17.9L79.1302 20.852C77.5782 19.972 76.0262 19.532 74.4742 19.532C73.3862 19.532 72.5782 19.708 72.0502 20.06C71.5382 20.412 71.2822 20.876 71.2822 21.452C71.2822 22.028 71.5782 22.46 72.1702 22.748C72.7782 23.02 73.6982 23.292 74.9302 23.564C76.2102 23.868 77.2582 24.172 78.0742 24.476C78.8902 24.78 79.5862 25.26 80.1622 25.916C80.7542 26.572 81.0502 27.46 81.0502 28.58C81.0502 29.54 80.7782 30.42 80.2342 31.22C79.7062 32.004 78.9062 32.628 77.8342 33.092C76.7622 33.556 75.4582 33.788 73.9222 33.788ZM89.5868 33.692C88.2268 33.692 87.0028 33.412 85.9148 32.852C84.8428 32.276 84.0028 31.484 83.3948 30.476C82.7868 29.468 82.4828 28.324 82.4828 27.044C82.4828 25.764 82.7868 24.62 83.3948 23.612C84.0028 22.604 84.8428 21.82 85.9148 21.26C87.0028 20.684 88.2268 20.396 89.5868 20.396C90.9468 20.396 92.1628 20.684 93.2348 21.26C94.3068 21.82 95.1468 22.604 95.7548 23.612C96.3628 24.62 96.6668 25.764 96.6668 27.044C96.6668 28.324 96.3628 29.468 95.7548 30.476C95.1468 31.484 94.3068 32.276 93.2348 32.852C92.1628 33.412 90.9468 33.692 89.5868 33.692ZM89.5868 30.62C90.5468 30.62 91.3308 30.3 91.9388 29.66C92.5628 29.004 92.8748 28.132 92.8748 27.044C92.8748 25.956 92.5628 25.092 91.9388 24.452C91.3308 23.796 90.5468 23.468 89.5868 23.468C88.6268 23.468 87.8348 23.796 87.2108 24.452C86.5868 25.092 86.2748 25.956 86.2748 27.044C86.2748 28.132 86.5868 29.004 87.2108 29.66C87.8348 30.3 88.6268 30.62 89.5868 30.62ZM104.713 28.436L102.913 30.212V33.5H99.1694V15.692H102.913V25.772L108.385 20.588H112.849L107.473 26.06L113.329 33.5H108.793L104.713 28.436ZM120.595 33.692C119.235 33.692 118.011 33.412 116.923 32.852C115.851 32.276 115.011 31.484 114.403 30.476C113.795 29.468 113.491 28.324 113.491 27.044C113.491 25.764 113.795 24.62 114.403 23.612C115.011 22.604 115.851 21.82 116.923 21.26C118.011 20.684 119.235 20.396 120.595 20.396C121.955 20.396 123.171 20.684 124.243 21.26C125.315 21.82 126.155 22.604 126.763 23.612C127.371 24.62 127.675 25.764 127.675 27.044C127.675 28.324 127.371 29.468 126.763 30.476C126.155 31.484 125.315 32.276 124.243 32.852C123.171 33.412 121.955 33.692 120.595 33.692ZM120.595 30.62C121.555 30.62 122.339 30.3 122.947 29.66C123.571 29.004 123.883 28.132 123.883 27.044C123.883 25.956 123.571 25.092 122.947 24.452C122.339 23.796 121.555 23.468 120.595 23.468C119.635 23.468 118.843 23.796 118.219 24.452C117.595 25.092 117.283 25.956 117.283 27.044C117.283 28.132 117.595 29.004 118.219 29.66C118.843 30.3 119.635 30.62 120.595 30.62ZM130.441 16.7H134.329V30.332H142.753V33.5H130.441V16.7ZM144.662 20.588H148.406V33.5H144.662V20.588ZM146.534 18.788C145.846 18.788 145.286 18.588 144.854 18.188C144.422 17.788 144.206 17.292 144.206 16.7C144.206 16.108 144.422 15.612 144.854 15.212C145.286 14.812 145.846 14.612 146.534 14.612C147.222 14.612 147.782 14.804 148.214 15.188C148.646 15.572 148.862 16.052 148.862 16.628C148.862 17.252 148.646 17.772 148.214 18.188C147.782 18.588 147.222 18.788 146.534 18.788ZM159.728 20.396C161.328 20.396 162.616 20.876 163.592 21.836C164.584 22.796 165.08 24.22 165.08 26.108V33.5H161.336V26.684C161.336 25.66 161.112 24.9 160.664 24.404C160.216 23.892 159.568 23.636 158.72 23.636C157.776 23.636 157.024 23.932 156.464 24.524C155.904 25.1 155.624 25.964 155.624 27.116V33.5H151.88V20.588H155.456V22.1C155.952 21.556 156.568 21.14 157.304 20.852C158.04 20.548 158.848 20.396 159.728 20.396ZM174.018 28.436L172.218 30.212V33.5H168.474V15.692H172.218V25.772L177.69 20.588H182.154L176.778 26.06L182.634 33.5H178.098L174.018 28.436Z" fill="#3D3D3D"/>
</svg>
